<svg width="32" height="33" viewBox="0 0 32 33" fill="none" xmlns="http://www.w3.org/2000/svg">
<path d="M29.3334 23.0087V27.0087C29.3349 27.38 29.2589 27.7476 29.1101 28.0878C28.9613 28.4281 28.7431 28.7335 28.4695 28.9845C28.1959 29.2356 27.8728 29.4267 27.5211 29.5456C27.1693 29.6646 26.7966 29.7088 26.4267 29.6754C22.3239 29.2296 18.3827 27.8276 14.9201 25.582C11.6985 23.5349 8.96719 20.8036 6.92007 17.582C4.66671 14.1036 3.2644 10.1434 2.82674 6.02203C2.79342 5.65332 2.83724 5.28171 2.95541 4.93086C3.07357 4.58002 3.2635 4.25762 3.51309 3.98419C3.76269 3.71077 4.06648 3.49231 4.40513 3.34273C4.74378 3.19314 5.10986 3.11571 5.48007 3.11536H9.48007C10.1271 3.109 10.7545 3.33814 11.2451 3.76007C11.7357 4.18201 12.0562 4.76796 12.1467 5.4087C12.3156 6.68879 12.6287 7.94567 13.0801 9.15536C13.2595 9.6326 13.2983 10.1512 13.1919 10.6499C13.0856 11.1485 12.8386 11.6062 12.4801 11.9687L10.7867 13.662C12.6848 17.0001 15.4487 19.764 18.7867 21.662L20.4801 19.9687C20.8426 19.6102 21.3003 19.3632 21.7989 19.2568C22.2975 19.1505 22.8162 19.1893 23.2934 19.3687C24.5031 19.8201 25.76 20.1332 27.0401 20.302C27.6878 20.3934 28.2793 20.7196 28.7021 21.2187C29.125 21.7177 29.3496 22.3548 29.3334 23.0087Z" stroke="#4B5563" stroke-width="2" stroke-linecap="round" stroke-linejoin="round"/>
</svg>
